<svg width="534" height="490" viewBox="0 0 534 490" fill="none" xmlns="http://www.w3.org/2000/svg">
<path d="M266.984 90.8784H175.906V211.149H266.984V90.8784Z" stroke="#072B2C" stroke-linecap="round" stroke-linejoin="round"/>
<path d="M256.381 104.891H186.52V197.137H256.381V104.891Z" stroke="#072B2C" stroke-linecap="round" stroke-linejoin="round"/>
<path d="M130.366 152.765H39.2881V273.035H130.366V152.765Z" stroke="#072B2C" stroke-linecap="round" stroke-linejoin="round"/>
<path d="M119.764 166.777H49.9022V259.023H119.764V166.777Z" stroke="#072B2C" stroke-linecap="round" stroke-linejoin="round"/>
<path d="M402.963 183.871C431.864 180.976 452.946 155.201 450.051 126.3C447.156 97.3986 421.38 76.3165 392.479 79.2114C363.578 82.1063 342.496 107.882 345.391 136.783C348.286 165.684 374.061 186.766 402.963 183.871Z" stroke="#072B2C" stroke-linecap="round" stroke-linejoin="round"/>
<path d="M404.114 174.689C427.919 171.149 444.347 148.98 440.806 125.175C437.265 101.37 415.097 84.942 391.292 88.4828C367.486 92.0235 351.059 114.192 354.6 137.997C358.14 161.802 380.309 178.23 404.114 174.689Z" stroke="#072B2C" stroke-linecap="round" stroke-linejoin="round"/>
<path d="M369.914 131.548H397.716V171.658" stroke="#072B2C" stroke-linecap="round" stroke-linejoin="round"/>
<path d="M362.383 381.99L380.832 411.708C381.367 412.569 381.662 413.558 381.686 414.572C381.711 415.586 381.464 416.587 380.971 417.474C380.477 418.36 379.756 419.098 378.882 419.612C378.008 420.125 377.012 420.396 375.998 420.395H338.317C339.328 420.395 340.322 420.126 341.194 419.614C342.067 419.102 342.787 418.367 343.281 417.484C343.775 416.602 344.024 415.603 344.003 414.592C343.983 413.58 343.692 412.593 343.163 411.731L325.367 382.656L362.383 381.99Z" fill="white" stroke="#072B2C" stroke-linecap="round" stroke-linejoin="round"/>
<path d="M362.383 381.99L325.309 382.656L332.175 393.842H369.739L362.383 381.99Z" fill="#072B2C" stroke="#072B2C" stroke-linecap="round" stroke-linejoin="round"/>
<path d="M263.819 388.611H414.612C416.489 388.611 418.01 387.09 418.01 385.213V258.918C418.01 257.041 416.489 255.52 414.612 255.52L263.819 255.52C261.943 255.52 260.421 257.041 260.421 258.918V385.213C260.421 387.09 261.943 388.611 263.819 388.611Z" fill="white" stroke="#072B2C" stroke-linecap="round" stroke-linejoin="round"/>
<path d="M257.853 388.611H408.646C410.522 388.611 412.044 387.09 412.044 385.213V258.918C412.044 257.041 410.522 255.52 408.646 255.52L257.853 255.52C255.976 255.52 254.455 257.041 254.455 258.918L254.455 385.213C254.455 387.09 255.976 388.611 257.853 388.611Z" fill="white" stroke="#072B2C" stroke-linecap="round" stroke-linejoin="round"/>
<path d="M259.756 255.52H406.754C407.45 255.52 408.139 255.657 408.781 255.924C409.424 256.19 410.007 256.581 410.499 257.073C410.99 257.566 411.379 258.15 411.644 258.793C411.91 259.437 412.045 260.126 412.044 260.821V364.744H254.408V260.821C254.408 260.121 254.547 259.428 254.816 258.782C255.085 258.135 255.48 257.549 255.977 257.056C256.475 256.563 257.065 256.174 257.713 255.91C258.362 255.646 259.056 255.514 259.756 255.52Z" fill="#072B2C" stroke="#072B2C" stroke-linecap="round" stroke-linejoin="round"/>
<path d="M261.075 357.493H405.423V260.821H261.075V357.493Z" fill="white" stroke="#072B2C" stroke-linecap="round" stroke-linejoin="round"/>
<path d="M310.188 271.424H311.916V282.376H310.188V271.424Z" fill="#072B2C"/>
<path d="M314.707 274.46V282.376H313.154V271.389H315.325L317.1 277.963V271.389H318.642V282.376H316.867L314.707 274.46Z" fill="#072B2C"/>
<path d="M322.483 280.391L323.803 271.424H325.367L323.698 282.376H321.117L319.424 271.389H321.164L322.483 280.391Z" fill="#072B2C"/>
<path d="M326.033 274.063C326.009 273.704 326.059 273.344 326.18 273.005C326.301 272.666 326.49 272.356 326.736 272.093C326.981 271.83 327.279 271.621 327.609 271.477C327.939 271.334 328.295 271.26 328.654 271.26C329.014 271.26 329.37 271.334 329.7 271.477C330.03 271.621 330.327 271.83 330.573 272.093C330.819 272.356 331.008 272.666 331.129 273.005C331.25 273.344 331.3 273.704 331.276 274.063V279.773C331.3 280.132 331.25 280.492 331.129 280.83C331.008 281.169 330.819 281.48 330.573 281.742C330.327 282.005 330.03 282.215 329.7 282.358C329.37 282.501 329.014 282.575 328.654 282.575C328.295 282.575 327.939 282.501 327.609 282.358C327.279 282.215 326.981 282.005 326.736 281.742C326.49 281.48 326.301 281.169 326.18 280.83C326.059 280.492 326.009 280.132 326.033 279.773V274.063ZM327.761 279.901C327.761 280.683 328.111 280.975 328.66 280.975C329.209 280.975 329.548 280.683 329.548 279.901V273.969C329.548 273.175 329.209 272.883 328.66 272.883C328.111 272.883 327.761 273.175 327.761 273.969V279.901Z" fill="#072B2C"/>
<path d="M332.374 271.424H334.102V282.376H332.374V271.424Z" fill="#072B2C"/>
<path d="M340.384 278.313V279.773C340.384 281.536 339.508 282.54 337.815 282.54C337.452 282.569 337.088 282.515 336.749 282.383C336.41 282.251 336.105 282.045 335.857 281.779C335.609 281.513 335.424 281.194 335.316 280.847C335.208 280.499 335.18 280.132 335.234 279.773V274.063C335.18 273.703 335.208 273.336 335.316 272.988C335.424 272.641 335.609 272.322 335.857 272.056C336.105 271.79 336.41 271.584 336.749 271.452C337.088 271.32 337.452 271.267 337.815 271.295C339.508 271.295 340.384 272.299 340.384 274.063V275.125H338.761V273.958C338.761 273.164 338.41 272.872 337.861 272.872C337.313 272.872 336.962 273.164 336.962 273.958V279.889C336.962 280.672 337.313 280.952 337.861 280.952C338.41 280.952 338.761 280.672 338.761 279.889V278.313H340.384Z" fill="#072B2C"/>
<path d="M343.163 276.059H345.498V277.624H343.163V280.847H346.152V282.376H341.481V271.389H346.152V273.035H343.163V276.059Z" fill="#072B2C"/>
<path d="M400.309 286.755H267.077V294.999H400.309V286.755Z" fill="#43916F"/>
<path d="M267.509 348.373V300.639H399.444V350.113" stroke="#072B2C" stroke-miterlimit="10"/>
<path d="M267.953 316.694H399.012" stroke="#072B2C" stroke-miterlimit="10"/>
<path d="M362.99 300.289V350.113" stroke="#072B2C" stroke-miterlimit="10"/>
<path d="M196.468 413.739H191.879V415.269H196.468V413.739Z" fill="white" stroke="#072B2C" stroke-linecap="round" stroke-linejoin="round"/>
<path d="M202.575 413.739H197.986V415.269H202.575V413.739Z" fill="white" stroke="#072B2C" stroke-linecap="round" stroke-linejoin="round"/>
<path d="M208.694 413.739H204.105V415.269H208.694V413.739Z" fill="white" stroke="#072B2C" stroke-linecap="round" stroke-linejoin="round"/>
<path d="M214.801 413.739H210.212V415.269H214.801V413.739Z" fill="white" stroke="#072B2C" stroke-linecap="round" stroke-linejoin="round"/>
<path d="M220.919 413.739H216.33V415.269H220.919V413.739Z" fill="white" stroke="#072B2C" stroke-linecap="round" stroke-linejoin="round"/>
<path d="M227.026 413.739H222.437V415.269H227.026V413.739Z" fill="white" stroke="#072B2C" stroke-linecap="round" stroke-linejoin="round"/>
<path d="M233.145 413.739H228.556V415.269H233.145V413.739Z" fill="white" stroke="#072B2C" stroke-linecap="round" stroke-linejoin="round"/>
<path d="M239.252 413.739H234.663V415.269H239.252V413.739Z" fill="white" stroke="#072B2C" stroke-linecap="round" stroke-linejoin="round"/>
<path d="M245.37 413.739H240.781V415.269H245.37V413.739Z" fill="white" stroke="#072B2C" stroke-linecap="round" stroke-linejoin="round"/>
<path d="M251.477 413.739H246.888V415.269H251.477V413.739Z" fill="white" stroke="#072B2C" stroke-linecap="round" stroke-linejoin="round"/>
<path d="M257.596 413.739H253.007V415.269H257.596V413.739Z" fill="white" stroke="#072B2C" stroke-linecap="round" stroke-linejoin="round"/>
<path d="M263.703 413.739H259.114V415.269H263.703V413.739Z" fill="white" stroke="#072B2C" stroke-linecap="round" stroke-linejoin="round"/>
<path d="M269.821 413.739H265.232V415.269H269.821V413.739Z" fill="white" stroke="#072B2C" stroke-linecap="round" stroke-linejoin="round"/>
<path d="M275.928 413.739H271.339V415.269H275.928V413.739Z" fill="white" stroke="#072B2C" stroke-linecap="round" stroke-linejoin="round"/>
<path d="M282.047 413.739H277.458V415.269H282.047V413.739Z" fill="white" stroke="#072B2C" stroke-linecap="round" stroke-linejoin="round"/>
<path d="M288.154 413.739H283.565V415.269H288.154V413.739Z" fill="white" stroke="#072B2C" stroke-linecap="round" stroke-linejoin="round"/>
<path d="M294.272 413.739H289.683V415.269H294.272V413.739Z" fill="white" stroke="#072B2C" stroke-linecap="round" stroke-linejoin="round"/>
<path d="M300.379 413.739H295.79V415.269H300.379V413.739Z" fill="white" stroke="#072B2C" stroke-linecap="round" stroke-linejoin="round"/>
<path d="M306.498 413.739H301.909V415.269H306.498V413.739Z" fill="white" stroke="#072B2C" stroke-linecap="round" stroke-linejoin="round"/>
<path d="M312.605 413.739H308.016V415.269H312.605V413.739Z" fill="white" stroke="#072B2C" stroke-linecap="round" stroke-linejoin="round"/>
<path d="M318.723 413.739H314.135V415.269H318.723V413.739Z" fill="white" stroke="#072B2C" stroke-linecap="round" stroke-linejoin="round"/>
<path d="M322.051 415.491H189.509V420.43H322.051V415.491Z" fill="white" stroke="#072B2C" stroke-linecap="round" stroke-linejoin="round"/>
<path d="M322.051 415.491H289.719V420.43H322.051V415.491Z" fill="#072B2C" stroke="#072B2C" stroke-linecap="round" stroke-linejoin="round"/>
<path d="M450.168 308.801V291.718H437.908V308.801H429.746L444.038 333.555L458.318 308.801H450.168Z" fill="#072B2C"/>
<path d="M355.727 247.93V246.179" stroke="#072B2C" stroke-miterlimit="10"/>
<path d="M355.727 242.734V230.415C355.727 228.247 356.588 226.168 358.121 224.635C359.654 223.103 361.733 222.241 363.901 222.241H436.296C438.464 222.241 440.543 223.103 442.076 224.635C443.609 226.168 444.47 228.247 444.47 230.415V283.544" stroke="#072B2C" stroke-miterlimit="10" stroke-dasharray="2.95 2.95"/>
<path d="M444.47 285.296V287.047" stroke="#072B2C" stroke-miterlimit="10"/>
<path d="M402.142 343.679H476.289C478.224 343.679 480.081 344.448 481.449 345.817C482.818 347.185 483.587 349.042 483.587 350.977V409.956H394.844V350.977C394.844 349.042 395.613 347.185 396.981 345.817C398.35 344.448 400.206 343.679 402.142 343.679Z" fill="#072B2C" stroke="#072B2C" stroke-miterlimit="10"/>
<path d="M478.916 335.505H399.515V409.956H478.916V335.505Z" fill="white" stroke="#072B2C" stroke-miterlimit="10"/>
<path d="M354.396 371.225H493.594C494.777 371.225 495.911 371.694 496.748 372.531C497.584 373.367 498.054 374.502 498.054 375.685V419.881H354.431V371.225H354.396Z" fill="#072B2C" stroke="#072B2C" stroke-miterlimit="10"/>
<path d="M335.947 371.225H474.024C474.764 371.225 475.474 371.519 475.997 372.042C476.52 372.565 476.814 373.275 476.814 374.015V419.881H333.191V374.015C333.191 373.281 333.48 372.577 333.996 372.054C334.512 371.532 335.213 371.234 335.947 371.225Z" fill="#636363" stroke="#072B2C" stroke-miterlimit="10"/>
<path d="M345.521 371.225H464.46V403.079C464.46 405.689 463.423 408.193 461.577 410.039C459.731 411.885 457.228 412.922 454.617 412.922H355.365C352.754 412.922 350.251 411.885 348.405 410.039C346.559 408.193 345.521 405.689 345.521 403.079V371.225Z" fill="#636363" stroke="#072B2C" stroke-miterlimit="10"/>
<path d="M442.45 371.225H367.532V419.881H442.45V371.225Z" fill="#072B2C" stroke="#072B2C" stroke-miterlimit="10"/>
<path d="M374.094 396.54C374.094 396.54 376.64 408.648 370.895 413.121C365.15 417.593 336.46 416.624 336.46 416.624H430.212C430.212 416.624 441.691 419.496 441.048 398.77L374.094 396.54Z" fill="white" stroke="#072B2C" stroke-miterlimit="10"/>
<path d="M431.579 414.814H371.561L374.842 412.98H433.938L431.579 414.814Z" fill="#43916F"/>
<path d="M379.372 400.802C379.372 408.205 377.621 410.925 377.621 410.925H435.455C435.455 410.925 437.989 409.372 438.573 401" stroke="#A3A3A3" stroke-miterlimit="10"/>
<path d="M378.602 407.422H437.207" stroke="#A3A3A3" stroke-miterlimit="10"/>
<path d="M379.185 403.721H437.989" stroke="#A3A3A3" stroke-miterlimit="10"/>
<path d="M416.959 410.727C416.959 410.727 419.879 408.006 419.68 400.802" stroke="#A3A3A3" stroke-miterlimit="10"/>
<path d="M442.45 371.225H367.532V399.144H442.45V371.225Z" fill="#636363" stroke="#072B2C" stroke-miterlimit="10"/>
<path d="M442.438 416.682H360.736V419.881H442.438V416.682Z" fill="#072B2C" stroke="#072B2C" stroke-miterlimit="10"/>
<path d="M364.823 371.225H445.147V375.089C445.144 377.128 444.334 379.083 442.895 380.527C441.455 381.971 439.503 382.787 437.464 382.796H372.553C370.506 382.796 368.543 381.983 367.095 380.535C365.648 379.088 364.835 377.125 364.835 375.078V371.213L364.823 371.225Z" fill="#072B2C" stroke="#072B2C" stroke-miterlimit="10"/>
<path d="M472.179 379.912C472.179 380.409 472.031 380.894 471.756 381.307C471.48 381.72 471.088 382.041 470.629 382.231C470.17 382.421 469.665 382.471 469.178 382.374C468.691 382.277 468.244 382.038 467.893 381.687C467.542 381.336 467.303 380.889 467.206 380.402C467.109 379.915 467.159 379.41 467.349 378.951C467.539 378.493 467.861 378.1 468.273 377.825C468.686 377.549 469.172 377.401 469.668 377.401C470.334 377.401 470.973 377.666 471.443 378.137C471.914 378.608 472.179 379.246 472.179 379.912Z" fill="white" stroke="#072B2C" stroke-miterlimit="10"/>
<path d="M472.179 391.11C472.179 391.606 472.031 392.092 471.756 392.505C471.48 392.918 471.088 393.239 470.629 393.429C470.17 393.619 469.665 393.669 469.178 393.572C468.691 393.475 468.244 393.236 467.893 392.885C467.542 392.534 467.303 392.087 467.206 391.6C467.109 391.113 467.159 390.608 467.349 390.149C467.539 389.691 467.861 389.298 468.273 389.023C468.686 388.747 469.172 388.599 469.668 388.599C470.334 388.599 470.973 388.864 471.443 389.335C471.914 389.806 472.179 390.444 472.179 391.11Z" fill="white" stroke="#072B2C" stroke-miterlimit="10"/>
<path d="M470.264 415.9H468.746C468.194 415.9 467.666 415.681 467.276 415.291C466.886 414.901 466.667 414.372 466.667 413.821C466.667 413.269 466.886 412.739 467.275 412.347C467.665 411.956 468.193 411.734 468.746 411.731H470.264C470.538 411.731 470.809 411.785 471.062 411.89C471.315 411.996 471.544 412.15 471.737 412.344C471.931 412.538 472.084 412.769 472.187 413.022C472.291 413.276 472.344 413.547 472.342 413.821C472.342 414.372 472.123 414.901 471.733 415.291C471.344 415.681 470.815 415.9 470.264 415.9Z" fill="#072B2C" stroke="#072B2C" stroke-miterlimit="10"/>
<path d="M403.625 484.115V433.31H381.24V484.29" fill="white"/>
<path d="M403.625 484.115V433.31H381.24V484.29" stroke="#072B2C" stroke-linecap="round" stroke-linejoin="round"/>
<path d="M403.636 433.31H392.438V484.745H403.636V433.31Z" fill="#072B2C" stroke="#072B2C" stroke-linecap="round" stroke-linejoin="round"/>
<path d="M503.893 484.115V433.31H481.497V484.29" fill="white"/>
<path d="M503.893 484.115V433.31H481.497V484.29" stroke="#072B2C" stroke-linecap="round" stroke-linejoin="round"/>
<path d="M503.893 433.31H492.695V484.745H503.893V433.31Z" fill="#072B2C" stroke="#072B2C" stroke-linecap="round" stroke-linejoin="round"/>
<path d="M509.859 424.61H53.3002V442.336H509.859V424.61Z" fill="white" stroke="#072B2C" stroke-miterlimit="10"/>
<path d="M509.859 424.61H400.005V442.336H509.859V424.61Z" fill="#072B2C" stroke="#072B2C" stroke-miterlimit="10"/>
<path d="M509.859 419.776H53.3002V426H509.859V419.776Z" fill="white" stroke="#072B2C" stroke-miterlimit="10"/>
<path d="M509.859 419.776H409.965V426H509.859V419.776Z" fill="#072B2C" stroke="#072B2C" stroke-miterlimit="10"/>
<path d="M198.745 177.368C198.745 177.368 199.574 184.572 199.025 187.34C198.477 190.107 195.429 191.777 195.698 193.715C195.966 195.654 202.902 205.625 199.574 208.953C197.886 210.785 195.801 212.207 193.479 213.11L191.272 218.155C191.272 218.155 177.972 226.749 172.706 228.967C167.44 231.186 172.146 241.707 172.146 241.707L158.566 238.659L155.25 254.352C155.25 254.352 144.997 244.369 131.137 239.943C117.277 235.518 112.022 236.067 112.022 236.067C114.269 230.523 115.94 224.764 117.008 218.879C118.947 208.626 120.056 185.904 120.056 184.245C120.056 182.587 128.919 157.097 136.684 152.099C144.449 147.102 176.022 152.66 192.65 156.77C209.278 160.88 202.073 172.837 202.073 172.837L198.745 177.368Z" fill="white" stroke="#072B2C" stroke-miterlimit="10"/>
<path d="M198.196 186.23C198.196 186.23 197.367 183.183 193.759 184.292C190.151 185.401 189.322 187.34 190.712 187.34C192.101 187.34 195.382 185.682 196.258 187.34C197.134 188.998 197.916 188.169 198.196 186.23Z" fill="#072B2C" stroke="#072B2C" stroke-miterlimit="10"/>
<path d="M193.211 196.202L191.541 197.043C191.541 197.043 194.04 198.701 192.93 202.578C191.821 206.455 190.712 209.782 190.712 209.782" stroke="#072B2C" stroke-miterlimit="10"/>
<path d="M183.227 169.883C183.227 169.883 185.726 180.392 184.616 182.634C183.507 184.876 175.193 187.9 174.364 190.948C173.535 193.995 171.877 210.343 172.426 213.39C172.975 216.438 174.364 221.704 175.754 221.704C177.143 221.704 187.43 213.939 191.272 213.659C195.114 213.379 193.479 220.315 191.541 222.533C189.602 224.752 185.702 225.301 186.006 227.8C186.309 230.298 191.272 238.881 185.726 246.366C180.179 253.85 173.815 252.204 167.16 246.914C160.504 241.625 159.406 232.785 161.321 227.8C163.236 222.814 166.307 209.782 166.588 203.967C166.868 198.152 165.478 190.668 161.321 192.291C157.164 193.914 160.492 210.308 157.445 213.904C154.397 217.501 142.195 227.765 138.879 227.765C135.562 227.765 117.534 219.731 116.985 218.89C116.436 218.049 118.643 180.929 116.436 166.252C114.229 151.574 119.484 141.03 136.38 136.044C153.276 131.058 184.079 140.236 184.079 140.236C184.079 140.236 181.032 135.25 187.676 133.031C194.32 130.813 210.118 136.908 211.228 146.892C212.337 156.875 206.557 157.144 207.351 160.46C208.145 163.776 218.712 170.163 213.189 175.43C207.666 180.696 198.78 177.368 198.78 177.368L197.671 168.774C197.671 168.774 191.821 161.569 183.227 169.883Z" fill="#072B2C" stroke="#072B2C" stroke-miterlimit="10"/>
<path d="M184.616 190.668L158.297 189.839C158.297 189.839 152.751 191.216 152.202 194.264C151.653 197.312 151.093 204.516 152.751 204.773C154.409 205.03 154.42 203.115 154.42 200.616C154.42 198.117 154.42 194.241 156.627 192.863C158.53 191.913 160.601 191.346 162.723 191.193L185.177 193.412L206.195 195.081V191.473L184.616 190.668Z" fill="#5E5E5E" stroke="#072B2C" stroke-miterlimit="10"/>
<path d="M165.77 201.469C165.77 201.469 166.611 192.606 162.174 190.107C157.737 187.608 154.689 194.544 154.42 200.616C154.152 206.688 158.297 214.196 163.563 212.807" fill="white"/>
<path d="M165.77 201.469C165.77 201.469 166.611 192.606 162.174 190.107C157.737 187.608 154.689 194.544 154.42 200.616C154.152 206.688 158.297 214.196 163.563 212.807" stroke="#072B2C" stroke-miterlimit="10"/>
<path d="M206.265 195.105C206.265 195.105 206.814 201.469 204.327 204.516C203.383 205.624 202.258 206.564 200.999 207.295" stroke="#072B2C" stroke-miterlimit="10"/>
<path d="M283.495 246.692L272.355 285.681L264.006 307.96L254.957 331.967C254.957 331.967 229.887 331.629 218.759 329.539C207.631 327.449 187.582 320.326 187.582 320.326C197.481 304.527 205.144 287.433 210.352 269.532C215.081 252.998 218.747 239.733 218.747 239.733L283.495 246.692Z" fill="white" stroke="#072B2C" stroke-miterlimit="10"/>
<path d="M227.704 264.558C227.704 264.558 219.366 294.485 215.957 300.545L256.475 306.606C256.475 306.606 264.053 293.341 269.74 270.233L227.704 264.558Z" stroke="#A3A3A3" stroke-miterlimit="10"/>
<path d="M225.427 271.377L267.474 277.052" stroke="#A3A3A3" stroke-miterlimit="10"/>
<path d="M223.535 281.22L263.936 286.58" stroke="#A3A3A3" stroke-miterlimit="10"/>
<path d="M220.207 291.227L260.749 296.914" stroke="#A3A3A3" stroke-miterlimit="10"/>
<path d="M246.631 295.034L238.679 316.834L251.559 319.485L256.113 304.329" stroke="#A3A3A3" stroke-miterlimit="10"/>
<path d="M200.427 302.811L217.089 305.847" stroke="#A3A3A3" stroke-miterlimit="10"/>
<path d="M199.294 305.088L215.957 308.124" stroke="#A3A3A3" stroke-miterlimit="10"/>
<path d="M198.15 307.365L214.824 310.389" stroke="#A3A3A3" stroke-miterlimit="10"/>
<path d="M220.51 242.454L215.49 259.864L274.107 266.905L279.793 249.483L220.51 242.454Z" fill="#43916F"/>
<path d="M222.612 245.887L223.885 246.015L221.55 254.189L220.277 254.049L222.612 245.887Z" fill="#072B2C"/>
<path d="M225.345 248.514L223.675 254.352L222.507 254.236L224.843 246.062L226.431 246.225L226.361 251.223L227.738 246.366L228.906 246.482L226.571 254.598L225.263 254.469L225.345 248.514Z" fill="#072B2C"/>
<path d="M229.829 253.442L232.689 246.914L233.857 247.043L230.354 255.03L228.451 254.831L229.513 246.587L230.798 246.716L229.829 253.442Z" fill="#072B2C"/>
<path d="M233.775 249.039C233.878 248.467 234.198 247.956 234.667 247.612C235.137 247.269 235.721 247.119 236.297 247.195C237.547 247.323 238.014 248.14 237.64 249.436L236.473 253.652C236.375 254.225 236.059 254.737 235.59 255.082C235.122 255.426 234.538 255.575 233.962 255.497C232.713 255.368 232.234 254.563 232.608 253.255L233.775 249.039ZM233.775 253.477C233.612 254.049 233.775 254.294 234.207 254.341C234.639 254.387 234.931 254.189 235.095 253.605L236.344 249.226C236.508 248.642 236.344 248.397 235.912 248.351C235.48 248.304 235.188 248.502 235.025 249.086L233.775 253.477Z" fill="#072B2C"/>
<path d="M239.018 247.568L240.291 247.697L237.956 255.87L236.683 255.742L239.018 247.568Z" fill="#072B2C"/>
<path d="M243.467 253.266L243.152 254.352C243.062 254.923 242.753 255.435 242.29 255.78C241.827 256.125 241.248 256.275 240.676 256.197C239.427 256.069 238.995 255.251 239.357 253.955L240.524 249.74C240.617 249.168 240.928 248.655 241.392 248.308C241.856 247.962 242.437 247.809 243.011 247.883C244.261 248.012 244.693 248.829 244.331 250.125L244.097 250.919L242.93 250.791L243.175 249.915C243.35 249.343 243.175 249.098 242.743 249.051C242.311 249.004 242.031 249.203 241.855 249.787L240.606 254.166C240.443 254.749 240.606 254.983 241.05 255.03C241.493 255.076 241.762 254.89 241.926 254.306L242.264 253.138L243.467 253.266Z" fill="#072B2C"/>
<path d="M245.966 251.807L247.717 251.994L247.379 253.161L245.639 252.986L244.962 255.322L247.157 255.555L246.83 256.723L243.327 256.361L245.662 248.245L249.165 248.607L248.838 249.775L246.631 249.542L245.966 251.807Z" fill="#072B2C"/>
<path d="M272.822 254.679C272.931 255.564 272.768 256.461 272.355 257.251C271.942 258.041 271.299 258.686 270.51 259.101C269.721 259.517 268.825 259.682 267.94 259.575C267.055 259.469 266.223 259.095 265.555 258.505C264.888 257.914 264.416 257.134 264.202 256.269C263.989 255.403 264.043 254.493 264.359 253.66C264.675 252.827 265.238 252.109 265.971 251.603C266.705 251.096 267.575 250.826 268.467 250.826C269.555 250.762 270.624 251.132 271.44 251.854C272.256 252.576 272.753 253.592 272.822 254.679Z" fill="white"/>
<path d="M231.288 367.126C231.288 367.126 241.727 342.418 242.766 332.668C243.806 322.918 244.506 313.869 246.947 311.089C249.387 308.31 254.957 295.081 255.996 291.239C257.035 287.397 259.499 283.579 262.255 286.358C265.011 289.137 264.006 295.758 262.955 298.198C261.905 300.639 260.515 304.469 260.515 304.469L267.825 296.459L272.355 285.669C272.355 285.669 276.185 285.669 276.874 289.172C277.563 292.675 281.755 297.871 280.704 301.001C279.941 302.986 278.451 304.606 276.535 305.531C276.535 305.531 278.275 314.231 277.925 317.36C277.133 321.471 274.912 325.169 271.655 327.799C268.152 330.578 258.437 339.627 258.437 339.627C258.437 339.627 263.306 376.526 258.437 394.625C253.567 412.724 244.857 418.293 238.586 419.344C232.316 420.395 220.149 406.5 220.149 406.5C220.149 406.5 233.028 399.844 231.288 367.126Z" fill="white" stroke="#072B2C" stroke-miterlimit="10"/>
<path d="M276.535 305.52L270.966 311.089" stroke="#072B2C" stroke-miterlimit="10"/>
<path d="M267.824 296.47L273.394 291.94" stroke="#072B2C" stroke-miterlimit="10"/>
<path d="M108.181 229.049C108.181 229.049 117.907 226.714 132.702 232.949C143.536 237.329 153.056 244.432 160.341 253.57C163.542 257.876 166.157 262.588 168.117 267.582C168.117 267.582 111.684 245.793 105.46 245.793H91.448C91.448 245.793 98.8394 229.831 108.181 229.049Z" fill="white" stroke="#072B2C" stroke-miterlimit="10"/>
<path d="M302.014 484.769C256.86 445.068 186.415 445.068 186.415 445.068L175.906 434.956H50.8713V485.341" fill="white"/>
<path d="M302.014 484.769C256.86 445.068 186.415 445.068 186.415 445.068L175.906 434.956H50.8713V485.341" stroke="#072B2C" stroke-miterlimit="10"/>
<path d="M183.694 447.403C183.694 447.403 177.856 472.707 166.564 483.601" stroke="#072B2C" stroke-miterlimit="10"/>
<path d="M180.191 445.465C175.79 455.437 168.631 463.945 159.558 469.986" stroke="#072B2C" stroke-miterlimit="10"/>
<path d="M93.001 241.123C93.001 241.123 101.56 239.173 118.304 242.676C135.049 246.179 159.558 260.576 170.453 265.247C181.347 269.917 189.918 270.314 191.868 277.32C193.818 284.326 215.221 350.487 224.562 357.89C238.329 368.796 251.419 387.946 236.239 403.814C227.283 413.156 215.221 413.938 209.768 411.988C204.315 410.038 191.085 396.423 191.085 392.138V386.684L165.397 357.107C165.397 357.107 170.85 403.429 173.185 409.653C175.52 415.876 181.744 424.832 181.744 428.721C181.744 432.609 172.788 440.397 162.279 447.018C151.77 453.639 141.261 459.477 117.137 460.645C93.0126 461.812 64.1945 457.912 57.9709 449.739C51.7472 441.565 43.9588 431.838 43.1765 418.212C42.3941 404.585 39.6735 350.884 39.6735 350.884C39.6735 350.884 41.2381 307.283 42.4058 292.886C43.5735 278.488 46.6795 269.147 54.0825 266.029C61.4855 262.911 87.945 241.123 93.001 241.123Z" fill="#43916F" stroke="#072B2C" stroke-miterlimit="10"/>
<path d="M105.086 330.882C106.153 332.56 107.323 334.17 108.589 335.704" stroke="#072B2C" stroke-miterlimit="10"/>
<path d="M87.548 276.538C87.548 276.538 91.7282 305.73 102.191 325.849" stroke="#072B2C" stroke-miterlimit="10"/>
<path d="M90.2803 313.121C90.2803 313.121 98.8393 340.76 112.069 355.157" stroke="#072B2C" stroke-miterlimit="10"/>
<path d="M145.932 333.754L165.397 357.107" stroke="#072B2C" stroke-miterlimit="10"/>
<path d="M140.093 326.748L143.129 330.379" stroke="#072B2C" stroke-miterlimit="10"/>
<path d="M140.875 337.257L159.173 350.487" stroke="#072B2C" stroke-miterlimit="10"/>
<path d="M166.95 285.879C166.95 285.879 148.664 303.395 149.049 323.63" stroke="#072B2C" stroke-miterlimit="10"/>
<path d="M224.562 357.89C224.562 357.89 231.171 370.734 221.445 380.075C211.718 389.417 191.085 386.684 191.085 386.684V392.138C191.085 396.423 204.315 410.038 209.768 411.988C215.221 413.938 227.283 413.156 236.239 403.814C251.442 387.946 238.329 368.784 224.562 357.89Z" fill="white" stroke="#072B2C" stroke-miterlimit="10"/>
<path d="M173.185 409.653L152.167 389.802" stroke="#072B2C" stroke-miterlimit="10"/>
<path d="M140.49 378.511L161.111 393.305" stroke="#072B2C" stroke-miterlimit="10"/>
<path d="M110.913 399.342C112.399 400.424 113.96 401.4 115.584 402.261" stroke="#072B2C" stroke-miterlimit="10"/>
<path d="M65.7593 365.281C65.7593 365.281 89.1827 383.567 104.082 394.473" stroke="#072B2C" stroke-miterlimit="10"/>
<path d="M70.4298 376.958C70.4298 376.958 87.5479 389.417 90.2802 390.97" stroke="#072B2C" stroke-miterlimit="10"/>
<path d="M50.6729 385.715H142.919C145.783 385.715 148.531 386.853 150.556 388.879C152.582 390.904 153.72 393.652 153.72 396.516V475.334C153.72 477.424 152.889 479.429 151.411 480.907C149.933 482.385 147.928 483.216 145.838 483.216H47.7537C45.6633 483.216 43.6586 482.385 42.1805 480.907C40.7023 479.429 39.8719 477.424 39.8719 475.334V396.516C39.8719 393.652 41.0099 390.904 43.0355 388.879C45.061 386.853 47.8083 385.715 50.6729 385.715Z" fill="#072B2C" stroke="#072B2C" stroke-miterlimit="10"/>
<path d="M41.3316 385.715H133.578C136.442 385.715 139.189 386.853 141.215 388.879C143.241 390.904 144.379 393.652 144.379 396.516V475.334C144.379 477.424 143.548 479.429 142.07 480.907C140.592 482.385 138.587 483.216 136.497 483.216H38.4124C36.322 483.216 34.3173 482.385 32.8392 480.907C31.361 479.429 30.5306 477.424 30.5306 475.334V396.516C30.5306 393.652 31.6686 390.904 33.6942 388.879C35.7197 386.853 38.467 385.715 41.3316 385.715Z" fill="#636363" stroke="#072B2C" stroke-miterlimit="10"/>
<path d="M52.1325 490V414.323C52.1325 413.394 51.7634 412.503 51.1065 411.846C50.4495 411.189 49.5585 410.82 48.6295 410.82C47.7004 410.82 46.8094 411.189 46.1525 411.846C45.4955 412.503 45.1265 413.394 45.1265 414.323V490H52.1325Z" fill="#072B2C"/>
<path d="M115.771 490V414.323C115.771 413.394 115.401 412.503 114.745 411.846C114.088 411.189 113.197 410.82 112.268 410.82C111.338 410.82 110.447 411.189 109.791 411.846C109.134 412.503 108.765 413.394 108.765 414.323V490H115.771Z" fill="#072B2C"/>
</svg>
