<svg width="530" height="333" viewBox="0 0 530 333" fill="none" xmlns="http://www.w3.org/2000/svg">
<g opacity="0.15">
<path d="M355.67 74.7809C358.192 73.2299 360.527 71.6108 362.76 69.9916C361.789 68.2872 357.459 60.9414 356.982 56.8338C356.505 52.7263 356.982 47.7665 360.067 44.9032C360.758 44.1995 361.588 43.6488 362.505 43.2866C363.422 42.9243 364.405 42.7588 365.39 42.8005C366.375 42.8423 367.34 43.0905 368.223 43.529C369.106 43.9676 369.887 44.5867 370.515 45.3463C374.162 50.0333 370.975 60.2425 367.993 64.6228C367.839 64.8614 365.913 67.1112 364.584 68.7133C365.589 67.9634 366.629 67.2135 367.566 66.4806C371.112 63.7195 374.179 60.9754 376.872 58.5211C378.406 57.1235 379.753 55.8112 380.997 54.584C380.878 52.5047 380.503 44.1192 381.934 40.3184C383.366 36.5176 386.161 32.3078 390.184 31.1318C391.114 30.822 392.099 30.7105 393.075 30.8046C394.051 30.8986 394.997 31.196 395.851 31.6777C396.705 32.1594 397.449 32.8147 398.035 33.6013C398.62 34.3879 399.034 35.2884 399.251 36.2449C400.325 42.0739 392.791 49.6754 388.138 52.1979C387.729 52.4195 381.048 55.0783 381.031 54.9761V54.8567C379.838 56.0668 378.56 57.3451 377.145 58.7257C374.486 61.2311 371.469 64.0433 367.975 66.8896C364.249 70.0073 360.339 72.8985 356.266 75.5478L353.71 77.1329H351.613C352.943 76.4001 354.34 75.599 355.67 74.7809Z" fill="black"/>
<path d="M363.885 70.1454C363.885 70.0602 370.703 67.7252 371.095 67.64C376.208 66.5151 386.929 67.3843 389.843 72.5145C390.656 73.9272 390.912 75.5931 390.559 77.1845H369.8C367.689 74.9587 365.714 72.6081 363.885 70.1454Z" fill="black"/>
</g>
<path d="M258.809 159.822C256.341 160.469 253.792 160.751 251.242 160.657C251.242 160.657 252.384 157.146 252.486 156.925C253.679 154.453 257.395 150.38 260.429 150.789C260.932 150.871 261.412 151.058 261.838 151.338C262.264 151.618 262.626 151.985 262.901 152.414C263.176 152.843 263.358 153.326 263.434 153.83C263.51 154.334 263.479 154.848 263.343 155.34C262.959 156.372 262.354 157.307 261.571 158.082C260.788 158.856 259.846 159.45 258.809 159.822Z" fill="#072B2C"/>
<path d="M256.951 175.383C254.424 175.371 251.914 174.98 249.503 174.224C248.706 176.965 247.732 179.653 246.589 182.269C245.924 183.803 245.208 185.319 244.475 186.836L245.378 185.541C247.168 183.479 251.838 180.53 254.667 181.723C255.122 181.939 255.528 182.246 255.858 182.625C256.188 183.005 256.437 183.449 256.587 183.929C256.738 184.41 256.787 184.916 256.732 185.416C256.678 185.916 256.52 186.4 256.269 186.836C255.627 187.73 254.796 188.472 253.836 189.011C252.877 189.549 251.811 189.872 250.713 189.955C248.256 189.955 245.814 189.581 243.47 188.847L242.6 190.552C241.22 193.33 239.822 196.074 238.527 198.818C238.067 199.79 237.658 200.761 237.249 201.733C237.641 201.153 237.964 200.676 238.033 200.608C239.822 198.545 244.492 195.597 247.304 196.807C247.763 197.018 248.172 197.323 248.505 197.702C248.839 198.082 249.089 198.526 249.24 199.008C249.391 199.49 249.439 199.998 249.382 200.499C249.324 201.001 249.162 201.485 248.906 201.92C248.264 202.814 247.433 203.556 246.474 204.094C245.514 204.633 244.448 204.956 243.35 205.039C240.958 205.054 238.577 204.698 236.294 203.982C235.902 204.988 235.51 205.994 235.169 206.982C234.948 207.664 234.692 208.311 234.522 208.993C234.351 209.675 234.147 210.374 233.959 211.038C233.635 212.351 233.311 213.697 233.039 214.976C232.834 215.879 232.664 216.68 232.493 217.583C232.919 216.612 233.84 214.737 233.925 214.601C235.374 212.283 239.549 208.652 242.447 209.488C242.937 209.625 243.392 209.865 243.783 210.19C244.173 210.516 244.491 210.921 244.715 211.378C244.938 211.835 245.063 212.333 245.08 212.842C245.098 213.35 245.008 213.857 244.816 214.328C244.316 215.308 243.609 216.168 242.744 216.848C241.879 217.528 240.876 218.012 239.805 218.265C237.313 218.633 234.781 218.633 232.289 218.265C232.016 219.68 231.743 221.06 231.522 222.373C231.011 225.27 230.619 227.878 230.329 230.076H228.318C228.676 227.792 229.136 225.083 229.732 222.049C230.022 220.6 230.346 219.066 230.704 217.481C229.268 216.913 227.868 216.259 226.511 215.521C224.665 217.104 222.612 218.428 220.409 219.458C220.955 220.788 221.5 222.1 222.114 223.31C223.222 225.867 224.278 228.133 225.199 230.127H223.034C222.233 228.338 221.33 226.31 220.443 224.077C219.881 222.713 219.301 221.248 218.739 219.731C216.288 220.3 213.766 220.496 211.257 220.31C210.168 220.142 209.13 219.737 208.214 219.125C207.298 218.512 206.528 217.707 205.956 216.765C205.732 216.308 205.606 215.809 205.586 215.3C205.567 214.791 205.655 214.284 205.845 213.812C206.035 213.339 206.322 212.912 206.687 212.557C207.053 212.203 207.489 211.929 207.967 211.754C210.865 210.783 215.296 214.072 216.915 216.288C217.018 216.407 217.904 217.992 218.432 218.913C218.211 218.282 217.972 217.686 217.75 217.055C217.29 215.794 216.864 214.515 216.404 213.135C216.199 212.47 215.995 211.805 215.79 211.107C215.586 210.408 215.433 209.709 215.245 208.993C214.853 207.289 214.529 205.584 214.239 203.88C211.975 204.819 209.576 205.395 207.132 205.584C206.032 205.583 204.946 205.339 203.95 204.871C202.954 204.403 202.074 203.721 201.371 202.875C201.078 202.459 200.876 201.987 200.778 201.488C200.68 200.989 200.688 200.475 200.802 199.979C200.917 199.484 201.134 199.018 201.441 198.612C201.747 198.207 202.136 197.87 202.582 197.625C205.309 196.227 210.183 198.818 212.126 200.744C212.245 200.863 213.49 202.448 214.137 203.267C213.984 202.227 213.813 201.187 213.677 200.148C213.302 197.114 213.012 194.029 212.723 190.944C212.62 190.006 212.518 189.069 212.433 188.132C210.08 189.055 207.606 189.629 205.087 189.836C203.985 189.829 202.898 189.583 201.901 189.115C200.903 188.647 200.019 187.969 199.309 187.126C199.016 186.711 198.814 186.238 198.716 185.739C198.618 185.24 198.626 184.726 198.74 184.231C198.854 183.735 199.072 183.269 199.378 182.864C199.685 182.458 200.074 182.122 200.519 181.877C203.246 180.462 208.121 183.053 210.064 184.979C210.217 185.132 211.99 187.348 212.416 187.927C212.194 185.865 211.956 183.803 211.632 181.791C211.24 179.059 210.671 176.354 209.927 173.696C207.56 174.629 205.067 175.203 202.53 175.4C201.43 175.399 200.344 175.155 199.348 174.687C198.353 174.218 197.472 173.537 196.77 172.69C196.476 172.275 196.274 171.802 196.176 171.303C196.078 170.804 196.086 170.29 196.201 169.795C196.315 169.299 196.532 168.833 196.839 168.428C197.145 168.022 197.534 167.686 197.98 167.441C200.707 166.043 205.581 168.634 207.524 170.56C207.678 170.713 209.587 173.099 209.893 173.559C209.893 173.406 209.893 173.235 209.774 173.082C208.941 170.439 207.868 167.878 206.57 165.429C205.871 164.066 205.138 162.805 204.388 161.595C202.19 162.761 199.828 163.588 197.383 164.049C196.289 164.168 195.182 164.047 194.14 163.694C193.098 163.34 192.146 162.764 191.35 162.004C191.012 161.621 190.759 161.172 190.607 160.685C190.455 160.198 190.407 159.685 190.467 159.178C190.526 158.672 190.692 158.184 190.952 157.745C191.213 157.307 191.563 156.929 191.98 156.635C194.537 154.93 199.667 156.976 201.815 158.68L203.775 160.64C203.434 160.095 203.076 159.532 202.735 159.021C201.457 157.095 200.161 155.408 199.002 153.908C198.338 153.056 197.724 152.323 197.145 151.624C194.669 151.65 192.203 151.3 189.833 150.584C188.81 150.183 187.886 149.563 187.127 148.768C186.367 147.973 185.79 147.023 185.436 145.982C185.311 145.489 185.292 144.975 185.38 144.474C185.467 143.973 185.66 143.496 185.945 143.075C186.229 142.653 186.6 142.296 187.032 142.028C187.464 141.76 187.948 141.585 188.452 141.517C191.503 141.193 195.116 145.369 196.241 147.857C196.326 148.079 197.451 151.624 197.383 151.624C197.946 152.289 198.559 152.987 199.207 153.771C200.4 155.237 201.746 156.907 203.059 158.885C204.517 160.923 205.855 163.046 207.064 165.242C208.427 167.698 209.567 170.27 210.473 172.929C210.473 172.929 210.473 172.929 210.473 173.014C210.473 172.128 210.473 169.605 210.473 169.418C210.831 166.708 213.098 161.68 216.114 161.117C216.617 161.04 217.129 161.07 217.619 161.203C218.11 161.337 218.566 161.572 218.96 161.893C219.353 162.215 219.675 162.615 219.904 163.069C220.133 163.522 220.265 164.019 220.29 164.526C220.25 165.626 219.97 166.704 219.469 167.684C218.969 168.665 218.26 169.524 217.393 170.202C215.288 171.579 212.99 172.635 210.575 173.338C211.429 176.062 212.101 178.841 212.586 181.655C212.876 183.359 213.115 184.962 213.353 186.632C213.353 185.848 213.353 185.149 213.353 185.064C213.711 182.337 215.978 177.309 218.995 176.746C219.497 176.669 220.01 176.699 220.5 176.832C220.99 176.966 221.447 177.201 221.84 177.523C222.234 177.844 222.556 178.244 222.785 178.698C223.014 179.151 223.145 179.648 223.17 180.155C223.127 181.256 222.844 182.335 222.341 183.315C221.837 184.295 221.126 185.154 220.256 185.831C218.201 187.186 215.955 188.226 213.592 188.916L213.847 190.825C214.205 193.909 214.563 196.977 215.006 199.977C215.16 201.034 215.347 202.056 215.535 203.096C215.535 202.414 215.535 201.835 215.535 201.733C215.893 199.023 218.16 193.995 221.176 193.432C221.679 193.355 222.191 193.385 222.681 193.518C223.172 193.652 223.628 193.887 224.022 194.208C224.415 194.53 224.737 194.93 224.966 195.384C225.195 195.837 225.327 196.334 225.352 196.841C225.309 197.942 225.026 199.021 224.522 200.001C224.019 200.981 223.307 201.84 222.438 202.517C220.449 203.842 218.271 204.859 215.978 205.533C216.199 206.59 216.421 207.647 216.677 208.652C216.881 209.351 217.018 210.016 217.256 210.698C217.495 211.379 217.682 212.044 217.904 212.709C218.364 213.97 218.824 215.282 219.319 216.51C219.642 217.362 219.966 218.214 220.29 218.981C220.137 217.924 219.847 215.862 219.847 215.691C219.878 213.294 220.53 210.945 221.739 208.874C221.713 208.607 221.713 208.339 221.739 208.073C221.804 207.567 221.974 207.081 222.24 206.646C222.505 206.21 222.859 205.836 223.278 205.546C223.698 205.257 224.174 205.059 224.675 204.966C225.176 204.873 225.692 204.886 226.187 205.005C229.136 205.789 231.011 210.987 231.164 213.714C231.164 213.885 231.062 215.64 230.976 216.748C231.13 216.1 231.266 215.47 231.42 214.805C231.726 213.51 232.084 212.197 232.442 210.817L233.056 208.789C233.26 208.107 233.533 207.408 233.772 206.709C234.368 205.107 235.033 203.522 235.749 201.937C233.359 201.429 231.061 200.561 228.931 199.364C228.014 198.755 227.24 197.953 226.666 197.014C226.092 196.074 225.731 195.021 225.608 193.927C225.594 193.418 225.688 192.912 225.883 192.442C226.078 191.972 226.37 191.549 226.74 191.2C227.11 190.851 227.55 190.584 228.03 190.416C228.51 190.249 229.021 190.185 229.528 190.228C232.579 190.552 235.22 195.341 235.766 198.085C235.766 198.256 235.987 200.216 236.055 201.289C236.499 200.352 236.925 199.398 237.402 198.443C238.748 195.699 240.214 192.972 241.663 190.245L242.975 187.723C240.499 187.218 238.114 186.338 235.902 185.115C234.986 184.501 234.214 183.696 233.64 182.754C233.066 181.812 232.704 180.757 232.579 179.661C232.565 179.152 232.658 178.647 232.854 178.177C233.049 177.707 233.341 177.284 233.711 176.934C234.081 176.585 234.521 176.318 235.001 176.151C235.481 175.983 235.992 175.919 236.499 175.962C239.532 176.286 242.174 181.076 242.737 183.82C242.737 184.024 243.026 186.853 243.06 187.569C244.015 185.728 244.952 183.871 245.805 182.013C246.969 179.506 247.971 176.927 248.804 174.292C246.31 173.784 243.908 172.899 241.68 171.667C240.764 171.057 239.992 170.255 239.418 169.316C238.844 168.377 238.482 167.324 238.356 166.23C238.343 165.723 238.436 165.218 238.63 164.748C238.824 164.279 239.115 163.856 239.482 163.505C239.85 163.155 240.287 162.886 240.766 162.716C241.244 162.545 241.753 162.477 242.259 162.515C245.31 162.856 247.952 167.628 248.497 170.372C248.497 170.594 248.821 173.627 248.838 174.19C248.838 174.036 248.941 173.883 248.992 173.73C249.749 171.065 250.268 168.339 250.543 165.583C250.713 164.049 250.781 162.6 250.832 161.168C248.357 160.938 245.931 160.329 243.64 159.362C242.656 158.846 241.797 158.121 241.122 157.237C240.448 156.354 239.975 155.334 239.737 154.249C239.67 153.744 239.71 153.231 239.853 152.742C239.996 152.254 240.241 151.8 240.57 151.412C240.899 151.023 241.306 150.708 241.764 150.486C242.222 150.264 242.722 150.141 243.231 150.124C246.282 150.124 249.452 154.658 250.287 157.265C250.287 157.402 250.645 158.885 250.85 159.975C250.85 159.328 250.85 158.663 250.85 158.049C250.85 155.731 250.696 153.618 250.543 151.743C250.457 150.669 250.355 149.715 250.253 148.812C248.178 147.467 246.316 145.818 244.731 143.92C244.1 143.019 243.671 141.992 243.474 140.909C243.277 139.826 243.316 138.714 243.589 137.648C243.76 137.167 244.031 136.727 244.384 136.358C244.737 135.989 245.164 135.698 245.637 135.505C246.11 135.312 246.618 135.221 247.129 135.238C247.639 135.254 248.141 135.379 248.6 135.603C251.327 137.017 252.008 142.42 251.582 145.181C251.582 145.42 250.526 148.999 250.475 148.965C250.594 149.834 250.713 150.669 250.815 151.777C251.003 153.652 251.19 155.766 251.241 158.101C251.334 160.601 251.277 163.106 251.071 165.6C250.859 168.403 250.391 171.182 249.673 173.9C249.673 173.9 249.673 173.9 249.673 173.985C250.151 173.235 251.565 171.156 251.685 171.02C253.474 168.94 258.161 166.009 260.973 167.202C261.43 167.415 261.837 167.721 262.169 168.101C262.501 168.48 262.75 168.924 262.901 169.405C263.052 169.886 263.101 170.394 263.045 170.895C262.989 171.395 262.829 171.879 262.576 172.315C261.92 173.208 261.077 173.945 260.105 174.475C259.133 175.005 258.056 175.315 256.951 175.383Z" fill="#072B2C"/>
<path d="M204.438 160.998C204.438 160.998 203.449 157.436 203.432 157.197C203.04 154.487 203.909 149.033 206.67 147.704C207.134 147.495 207.636 147.385 208.145 147.384C208.653 147.382 209.156 147.487 209.621 147.693C210.086 147.899 210.502 148.201 210.843 148.579C211.183 148.956 211.44 149.402 211.596 149.886C211.849 150.958 211.863 152.073 211.636 153.151C211.409 154.229 210.947 155.244 210.284 156.124C208.587 158.029 206.617 159.671 204.438 160.998Z" fill="#072B2C"/>
<path d="M215.501 226.258H238.305L236.039 279.026H217.785L215.501 226.258Z" fill="#072B2C"/>
<path d="M9.57809 273.818H304.81V331.017H9.57809V273.818Z" fill="white"/>
<path d="M9.57751 331.869H304.81C305.036 331.869 305.252 331.779 305.412 331.619C305.572 331.459 305.662 331.242 305.662 331.016V273.818C305.662 273.592 305.572 273.375 305.412 273.215C305.252 273.055 305.036 272.965 304.81 272.965H9.57751C9.3515 272.965 9.13477 273.055 8.97495 273.215C8.81512 273.375 8.72534 273.592 8.72534 273.818V331.016C8.72534 331.242 8.81512 331.459 8.97495 331.619C9.13477 331.779 9.3515 331.869 9.57751 331.869ZM303.957 330.164H10.4297V274.67H303.957V330.164Z" fill="#072B2C"/>
<path d="M9.57809 273.818H304.81V292.907H9.57809V273.818Z" fill="#072B2C"/>
<path d="M9.57751 293.759H304.81C305.036 293.759 305.252 293.669 305.412 293.509C305.572 293.349 305.662 293.133 305.662 292.907V273.818C305.662 273.592 305.572 273.375 305.412 273.215C305.252 273.055 305.036 272.965 304.81 272.965H9.57751C9.3515 272.965 9.13477 273.055 8.97495 273.215C8.81512 273.375 8.72534 273.592 8.72534 273.818V292.907C8.72534 293.133 8.81512 293.349 8.97495 293.509C9.13477 293.669 9.3515 293.759 9.57751 293.759ZM303.957 292.054H10.4297V274.67H303.957V292.054Z" fill="#072B2C"/>
<path d="M0.886841 273.818H313.504V283.993H0.886841V273.818Z" fill="white"/>
<path d="M0.852142 284.845H313.503C313.729 284.845 313.946 284.755 314.106 284.596C314.265 284.436 314.355 284.219 314.355 283.993V273.767C314.355 273.541 314.265 273.324 314.106 273.164C313.946 273.004 313.729 272.915 313.503 272.915H0.852142C0.626129 272.915 0.409393 273.004 0.249573 273.164C0.0897522 273.324 -3.05176e-05 273.541 -3.05176e-05 273.767V283.993C-3.05176e-05 284.219 0.0897522 284.436 0.249573 284.596C0.409393 284.755 0.626129 284.845 0.852142 284.845ZM312.617 283.141H1.7384V274.619H312.651L312.617 283.141Z" fill="#072B2C"/>
<path d="M109.321 254.474L146.187 162.71C146.264 162.344 146.421 161.998 146.647 161.699C146.872 161.4 147.161 161.154 147.492 160.979C147.824 160.803 148.189 160.703 148.564 160.685C148.938 160.666 149.312 160.731 149.658 160.873C150.005 161.015 150.316 161.232 150.57 161.508C150.824 161.784 151.014 162.112 151.126 162.469C151.239 162.827 151.272 163.205 151.222 163.576C151.173 163.948 151.042 164.304 150.84 164.619L113.991 256.383C113.534 257.555 113.314 258.806 113.343 260.064C113.348 262.668 114.383 265.164 116.223 267.007C118.062 268.85 120.557 269.89 123.161 269.899H152.646V275.012H123.161C119.199 275.007 115.402 273.43 112.602 270.628C109.803 267.825 108.23 264.026 108.23 260.064C108.228 258.148 108.599 256.249 109.321 254.474Z" fill="#072B2C"/>
<path d="M135.315 71.9261L145.064 70.9512L162.512 245.428L152.763 246.403L135.315 71.9261Z" fill="white"/>
<path d="M153.837 242.56H153.922L163.637 241.605C163.749 241.595 163.858 241.563 163.958 241.51C164.057 241.457 164.145 241.385 164.217 241.299C164.355 241.119 164.422 240.894 164.404 240.668L147.361 67.043C147.335 66.8215 147.225 66.6184 147.054 66.4757C146.882 66.3329 146.663 66.2614 146.44 66.276L136.725 67.2305C136.612 67.2368 136.502 67.2675 136.402 67.3204C136.302 67.3734 136.214 67.4474 136.146 67.5373C136.009 67.7112 135.942 67.9301 135.958 68.1509L153.002 241.793C153.019 242.002 153.115 242.198 153.27 242.34C153.424 242.482 153.627 242.56 153.837 242.56ZM162.632 239.986L154.604 240.77L137.714 68.8326L145.741 68.0486L162.632 239.986Z" fill="#072B2C"/>
<path d="M185.352 264.41L280.576 268.603V273.392H185.352V264.41Z" fill="white"/>
<path d="M185.352 274.244H280.575C280.801 274.244 281.018 274.154 281.178 273.995C281.338 273.835 281.427 273.618 281.427 273.392V268.586C281.428 268.365 281.343 268.154 281.19 267.995C281.038 267.836 280.829 267.742 280.609 267.733L185.386 263.541C185.27 263.533 185.154 263.551 185.045 263.592C184.936 263.633 184.837 263.697 184.755 263.779C184.672 263.858 184.606 263.953 184.562 264.059C184.518 264.165 184.497 264.278 184.5 264.393V273.375C184.497 273.488 184.518 273.601 184.56 273.706C184.601 273.812 184.664 273.908 184.743 273.989C184.822 274.07 184.917 274.134 185.022 274.178C185.126 274.222 185.238 274.244 185.352 274.244ZM279.723 272.54H186.204V265.296L279.723 269.421V272.54Z" fill="#072B2C"/>
<path d="M453.536 257.03L462.467 330.812H311.629L356.898 309.047C356.898 309.047 352.364 302.707 351.921 298.616C351.478 294.526 363.852 272.233 364.976 270.221L365.982 263.506C365.982 263.506 368.147 231.754 366.902 225.584C365.658 219.414 362.59 204.927 368.76 188.582C374.93 172.237 390.917 144.183 390.917 144.183L438.64 130.309C438.64 130.309 460.524 160.528 456.519 192.587C454.092 213.978 453.096 235.506 453.536 257.03Z" fill="#43916F"/>
<path d="M311.629 331.646H462.467C462.587 331.648 462.706 331.623 462.816 331.574C462.926 331.524 463.024 331.452 463.104 331.361C463.183 331.271 463.242 331.164 463.276 331.048C463.31 330.933 463.319 330.811 463.302 330.692L454.388 256.944C454.001 235.481 455.032 214.016 457.473 192.689C461.478 160.663 439.662 130.104 439.44 129.797C439.333 129.658 439.187 129.553 439.02 129.495C438.854 129.438 438.674 129.43 438.503 129.473L390.781 143.347C390.675 143.379 390.577 143.432 390.493 143.502C390.408 143.572 390.338 143.659 390.286 143.756C390.133 144.029 374.146 172.049 368.027 188.274C361.908 204.5 364.823 219.141 366.067 225.379V225.736C367.277 231.719 365.164 263.113 365.13 263.42L364.158 269.914C360.869 275.862 350.625 294.798 351.069 298.701C351.443 302.11 354.375 306.797 355.636 308.706L311.322 330.027C311.149 330.111 311.008 330.252 310.925 330.427C310.842 330.601 310.82 330.798 310.864 330.987C310.907 331.175 311.014 331.343 311.165 331.462C311.317 331.582 311.504 331.647 311.697 331.646H311.629ZM461.495 329.942H315.362L357.272 309.796C357.383 309.743 357.482 309.667 357.561 309.573C357.64 309.479 357.699 309.369 357.733 309.251C357.782 309.004 357.733 308.747 357.596 308.535C357.596 308.535 353.182 302.331 352.756 298.513C352.483 295.974 359.284 282.271 365.726 270.613C365.736 270.516 365.736 270.419 365.726 270.323L366.749 263.608C366.834 262.244 368.896 231.6 367.652 225.396V225.055C366.442 218.953 363.579 204.602 369.544 188.871C375.271 173.685 389.775 147.966 391.513 144.898L438.384 131.263C441.128 135.268 459.416 163.271 455.768 192.433C453.318 213.862 452.282 235.429 452.666 256.995L461.495 329.942Z" fill="#072B2C"/>
<path d="M311.629 330.812L356.897 309.047L394.462 330.812H311.629Z" fill="#072B2C"/>
<path d="M311.629 331.648H394.462C394.648 331.646 394.828 331.583 394.975 331.469C395.122 331.355 395.228 331.196 395.276 331.017C395.324 330.837 395.313 330.647 395.243 330.474C395.173 330.302 395.048 330.157 394.888 330.062L357.392 308.298C357.268 308.235 357.13 308.202 356.991 308.202C356.852 308.202 356.715 308.235 356.591 308.298L311.322 330.062C311.149 330.147 311.008 330.287 310.925 330.462C310.842 330.636 310.82 330.833 310.864 331.022C310.907 331.21 311.013 331.378 311.165 331.498C311.316 331.618 311.504 331.682 311.697 331.682L311.629 331.648ZM391.292 329.943H315.362L356.863 310.002L391.292 329.943Z" fill="#072B2C"/>
<path d="M417.657 327.591C417.883 327.623 418.112 327.564 418.294 327.426C418.477 327.289 418.597 327.085 418.628 326.858C418.66 326.632 418.601 326.403 418.463 326.221C418.326 326.039 418.122 325.919 417.896 325.887L357.066 308.23C356.849 308.171 356.618 308.199 356.421 308.307C356.224 308.415 356.077 308.595 356.01 308.809C355.946 309.026 355.972 309.259 356.081 309.457C356.189 309.656 356.372 309.803 356.589 309.866L417.418 327.557L417.657 327.591Z" fill="#072B2C"/>
<path d="M420.827 330.318C420.955 330.316 421.08 330.287 421.195 330.231C421.31 330.175 421.411 330.094 421.492 329.994C421.564 329.909 421.618 329.81 421.651 329.703C421.684 329.596 421.695 329.484 421.684 329.373C421.673 329.261 421.64 329.153 421.586 329.055C421.533 328.957 421.46 328.871 421.372 328.801L408.675 318.371C408.5 318.229 408.277 318.163 408.054 318.185C407.83 318.207 407.625 318.317 407.482 318.49C407.409 318.575 407.355 318.674 407.322 318.781C407.289 318.888 407.278 319 407.289 319.112C407.3 319.223 407.333 319.331 407.387 319.429C407.44 319.527 407.513 319.613 407.601 319.683L420.298 330.114C420.444 330.244 420.632 330.317 420.827 330.318Z" fill="#072B2C"/>
<path d="M356.658 34.7448C354.649 40.4726 353.388 46.4363 352.908 52.4873C351.886 63.4465 354.05 69.4288 351.306 72.8035C348.562 76.1782 345.852 77.0815 347.454 80.6437C349.057 84.2058 355.823 86.5919 355.823 86.5919C355.823 86.5919 362.282 101.113 366.168 105.681C370.054 110.249 384.763 105.681 384.763 105.681L389.774 121.276L424.015 104.709L419.584 88.7565L426.401 67.8949C426.401 67.8949 410.755 21.4506 356.658 34.7448Z" fill="white"/>
<path d="M389.774 122.009C389.897 122.035 390.025 122.035 390.148 122.009L424.389 105.443C424.57 105.358 424.714 105.212 424.798 105.032C424.882 104.851 424.901 104.647 424.85 104.454L420.469 88.7397L427.287 68.1338C427.338 67.9556 427.338 67.7666 427.287 67.5884C427.133 67.1111 410.754 20.5646 356.521 33.961C356.392 33.9958 356.272 34.06 356.171 34.1487C356.071 34.2374 355.992 34.3482 355.942 34.4723C353.891 40.2733 352.613 46.3189 352.141 52.4535C351.807 56.1878 351.733 59.9408 351.919 63.6853C352.039 67.8099 352.124 70.5028 350.709 72.3095C350.082 73.0592 349.416 73.776 348.715 74.457C346.891 76.2807 345.306 77.8657 346.755 81.0359C348.204 84.206 353.794 86.7456 355.277 87.308C356.282 89.5408 361.975 101.983 365.605 106.261C369.236 110.539 380.945 107.692 384.354 106.704L389.126 121.498C389.16 121.616 389.221 121.725 389.304 121.817C389.387 121.908 389.489 121.98 389.603 122.026C389.66 122.027 389.718 122.021 389.774 122.009ZM423.009 104.147L390.285 119.964L385.564 105.289C385.531 105.184 385.477 105.086 385.406 105.001C385.335 104.916 385.248 104.846 385.149 104.795C385.051 104.745 384.944 104.714 384.833 104.705C384.723 104.696 384.612 104.709 384.507 104.744C380.553 105.988 369.696 108.459 366.816 105.068C363.066 100.653 356.675 86.3194 356.589 86.2001C356.542 86.0943 356.474 85.9991 356.389 85.9201C356.304 85.8411 356.204 85.7798 356.095 85.74C354.305 85.1093 349.414 82.8766 348.221 80.2348C347.266 78.1384 348.067 77.3374 349.925 75.5819C350.556 74.9342 351.289 74.2014 352.022 73.298C353.845 71.0483 353.726 67.8951 353.624 63.5319C353.448 59.8614 353.516 56.1832 353.828 52.5217C354.322 46.7187 355.512 40.9963 357.373 35.4779C408.198 23.1894 424.117 63.7706 425.548 67.8611L418.731 88.4499C418.68 88.6107 418.68 88.7834 418.731 88.9442L423.009 104.147Z" fill="#072B2C"/>
<path d="M384.762 105.614L392.159 101.642L388.29 114.204L384.762 105.614Z" fill="#072B2C"/>
<path d="M388.29 115.055C388.469 115.048 388.64 114.984 388.781 114.874C388.922 114.764 389.024 114.613 389.074 114.441L392.943 101.897C392.991 101.734 392.99 101.56 392.942 101.397C392.894 101.233 392.799 101.088 392.67 100.977C392.538 100.868 392.376 100.802 392.206 100.787C392.036 100.772 391.865 100.808 391.716 100.891L384.319 104.863C384.132 104.961 383.989 105.126 383.916 105.324C383.844 105.522 383.847 105.741 383.927 105.936L387.472 114.458C387.529 114.631 387.638 114.781 387.785 114.888C387.932 114.995 388.108 115.053 388.29 115.055ZM390.727 103.363L388.171 111.68L385.836 106.004L390.727 103.363Z" fill="#072B2C"/>
<path d="M363.508 91.331C368.758 91.331 372.661 86.2179 372.814 86.0645C372.891 85.977 372.949 85.8747 372.985 85.7639C373.02 85.6532 373.033 85.5363 373.021 85.4205C373.01 85.3047 372.975 85.1925 372.919 85.0906C372.863 84.9888 372.786 84.8997 372.694 84.8286C372.602 84.7575 372.496 84.706 372.384 84.6772C372.271 84.6485 372.153 84.6432 372.039 84.6616C371.924 84.68 371.814 84.7217 371.716 84.7842C371.617 84.8467 371.533 84.9285 371.468 85.0248C371.468 85.0248 367.838 89.78 363.372 89.6266C363.149 89.6266 362.935 89.714 362.775 89.8702C362.616 90.0263 362.524 90.2387 362.52 90.4618C362.515 90.5743 362.534 90.6866 362.573 90.7918C362.613 90.8971 362.674 90.9933 362.752 91.0745C362.83 91.1557 362.924 91.2202 363.027 91.2643C363.131 91.3084 363.242 91.3311 363.355 91.331H363.508Z" fill="#072B2C"/>
<path d="M357.066 65.3891C357.322 67.7582 358.413 69.5989 359.504 69.4796C360.594 69.3603 361.31 67.3492 361.055 64.9801C360.799 62.611 359.725 60.7873 358.617 60.8896C357.509 60.9919 356.794 63.02 357.066 65.3891Z" fill="#072B2C"/>
<path d="M362.69 57.9074C362.866 57.9066 363.038 57.8532 363.184 57.754C363.364 57.6182 363.484 57.4179 363.519 57.1954C363.554 56.9728 363.501 56.7453 363.371 56.561C362.8 55.7615 362.068 55.0896 361.223 54.5879C360.378 54.0862 359.438 53.7656 358.463 53.6465C357.618 53.6963 356.797 53.9464 356.068 54.3761C355.339 54.8058 354.723 55.4028 354.27 56.1178C354.185 56.2042 354.12 56.3076 354.078 56.4211C354.037 56.5347 354.02 56.6559 354.028 56.7766C354.037 56.8972 354.072 57.0146 354.129 57.121C354.187 57.2273 354.267 57.3202 354.363 57.3933C354.459 57.4665 354.57 57.5183 354.688 57.5454C354.806 57.5724 354.928 57.574 355.047 57.55C355.165 57.5261 355.278 57.4772 355.376 57.4066C355.474 57.336 355.556 57.2452 355.617 57.1404C355.921 56.639 356.338 56.2159 356.835 55.9051C357.333 55.5943 357.896 55.4045 358.48 55.3509C359.908 55.5928 361.182 56.3892 362.025 57.5665C362.103 57.6692 362.204 57.7531 362.319 57.812C362.434 57.871 362.561 57.9036 362.69 57.9074Z" fill="#072B2C"/>
<path d="M404.621 4.06551C404.621 4.06551 431.686 1.88394 438.981 18.4846C446.276 35.0852 446.48 58.0091 443.583 66.0537C440.685 74.0984 431.652 86.1824 428.056 89.6593C424.46 93.1362 418.443 95.6246 413.245 93.3578C408.047 91.091 401.757 81.2227 400.172 74.8824C398.587 68.5421 399.525 62.5427 397.957 62.4063C394.198 62.6823 390.42 62.4473 386.725 61.7075C379.14 60.31 363.869 53.5265 355.552 41.9879C347.234 30.4493 348.734 17.5983 351.887 12.6215C355.04 7.64473 388.804 -5.15517 404.621 4.06551Z" fill="#072B2C"/>
<path d="M417.454 95.0798C421.643 94.9128 425.623 93.2077 428.634 90.2905C432.452 86.6772 441.502 74.3545 444.383 66.344C447.417 57.8221 447.127 34.9153 439.747 18.1442C432.606 1.88443 407.858 2.99229 404.824 3.19682C388.82 -5.80229 354.835 6.46919 351.17 12.1618C347.762 17.5306 346.5 30.91 354.852 42.4997C363.033 53.8168 378.321 61.0263 386.57 62.5432C389.842 63.2598 393.199 63.5066 396.541 63.2761C397.052 63.2761 397.427 63.2761 397.751 63.2761C398.069 64.472 398.235 65.7031 398.245 66.9405C398.367 69.6953 398.738 72.4335 399.353 75.1215C401.058 81.8197 407.449 91.8074 412.903 94.1765C414.343 94.7817 415.891 95.0889 417.454 95.0798ZM407.551 4.833C414.607 4.833 432.606 6.11127 438.23 18.8259C445.32 34.9664 445.678 57.771 442.815 65.7645C439.951 73.758 431.208 85.5353 427.475 89.0463C424.067 92.3187 418.408 94.6707 413.602 92.5914C408.795 90.512 402.557 80.8312 401.023 74.6784C400.436 72.0848 400.082 69.4438 399.967 66.7871C399.745 63.617 399.609 61.674 398.058 61.5547C397.525 61.5044 396.989 61.5044 396.456 61.5547C393.251 61.7562 390.033 61.5153 386.894 60.8388C378.918 59.373 364.158 52.4021 356.215 41.46C348.273 30.518 349.398 18.0249 352.568 13.0481C355.738 8.07133 389.008 -3.99568 404.16 4.76482C404.317 4.84841 404.493 4.88954 404.671 4.88413C404.671 4.88413 405.813 4.833 407.551 4.833Z" fill="#072B2C"/>
<path d="M388.802 69.8552C388.802 69.8552 394.767 55.6066 401.039 59.2881C407.311 62.9696 405.522 78.6668 402.556 82.9959C399.591 87.3251 393.949 83.5755 393.949 83.5755" fill="white"/>
<path d="M398.62 85.9446C399.541 85.9659 400.451 85.7516 401.266 85.322C402.08 84.8925 402.771 84.262 403.273 83.4903C405.489 80.2179 406.989 71.5597 405.574 65.2024C405.385 63.871 404.922 62.5932 404.216 61.4493C403.509 60.3054 402.573 59.32 401.467 58.5553C400.843 58.1708 400.141 57.9315 399.412 57.8548C398.684 57.7781 397.947 57.866 397.257 58.1122C392.144 59.8165 388.19 69.1395 388.019 69.5315C387.963 69.6364 387.93 69.7519 387.922 69.8704C387.913 69.9889 387.93 70.1078 387.97 70.2196C388.01 70.3314 388.074 70.4335 388.156 70.5194C388.238 70.6053 388.337 70.6732 388.447 70.7185C388.556 70.7639 388.675 70.7858 388.793 70.7828C388.912 70.7798 389.029 70.752 389.136 70.7012C389.244 70.6505 389.339 70.5777 389.417 70.4878C389.495 70.3979 389.553 70.2928 389.587 70.1791C389.587 70.1791 393.405 61.18 397.802 59.7313C398.262 59.5626 398.755 59.501 399.242 59.5512C399.729 59.6014 400.199 59.7621 400.615 60.0211C401.506 60.6812 402.256 61.5128 402.82 62.4669C403.385 63.4211 403.754 64.4787 403.904 65.5773C405.199 71.4063 403.904 79.6043 401.859 82.5188C399.421 86.098 394.615 83.0131 394.411 82.8768C394.223 82.7764 394.006 82.7495 393.8 82.8013C393.594 82.8531 393.415 82.98 393.297 83.157C393.18 83.334 393.133 83.5484 393.166 83.7582C393.198 83.9681 393.308 84.1582 393.473 84.2914C395.004 85.306 396.785 85.8781 398.62 85.9446Z" fill="#072B2C"/>
<path d="M429.623 101.233C429.623 101.233 384.338 113.249 381.526 116.896C378.713 120.543 379.361 123.713 380.912 125.844C382.523 128.902 383.864 132.096 384.917 135.388C384.917 135.388 382.753 142.206 383.98 144.95C384.96 146.543 386.394 147.807 388.098 148.578C389.802 149.35 391.698 149.594 393.542 149.279C396.95 148.359 437.327 134.485 438.861 133.565C440.395 132.644 441.025 125.554 437.941 123.338C434.856 121.123 436.407 123.645 434.856 121.174C433.305 118.703 438.247 102.153 429.623 101.233Z" fill="#43916F"/>
<path d="M391.99 150.37C392.565 150.37 393.138 150.295 393.694 150.148C397.239 149.177 437.599 135.303 439.235 134.332C440.377 133.65 440.854 131.451 440.939 129.644C440.939 128.468 440.939 124.531 438.383 122.725C437.712 122.139 436.892 121.75 436.014 121.6C435.912 121.429 435.758 121.174 435.52 120.816C435.283 119.188 435.283 117.535 435.52 115.907C435.912 110.01 436.491 101.113 429.691 100.38C429.589 100.363 429.485 100.363 429.384 100.38C424.714 101.625 383.689 112.601 380.826 116.419C377.417 121.02 378.951 124.617 380.195 126.372C381.737 129.272 383.009 132.307 383.996 135.439C383.57 136.888 381.968 142.581 383.195 145.342C384.422 148.103 388.547 150.37 391.99 150.37ZM435.98 123.287C436.518 123.468 437.015 123.752 437.445 124.122C438.894 125.128 439.337 127.531 439.286 129.542C439.37 130.713 439.07 131.879 438.434 132.866C437.019 133.65 397.393 147.387 393.319 148.495C391.68 148.742 390.005 148.512 388.494 147.832C386.982 147.152 385.699 146.05 384.797 144.66C383.894 142.632 385.189 137.502 385.752 135.712C385.819 135.542 385.819 135.353 385.752 135.184C384.68 131.803 383.299 128.528 381.627 125.401C380.434 123.696 379.582 121.003 382.241 117.458C384.116 114.953 412.289 106.721 429.708 102.119C434.326 102.749 434.326 108.936 433.866 115.839C433.662 119.077 433.577 120.799 434.173 121.753C435.042 123.151 435.247 123.458 436.014 123.321L435.98 123.287Z" fill="#072B2C"/>
<path d="M290.597 234.378C290.597 234.378 268.167 237.276 266.736 237.037C265.304 236.798 257.566 242.576 251.294 246.445C245.022 250.314 242.619 253.433 239.227 256.825C235.835 260.217 231.267 261.938 233.21 263.336C235.153 264.733 236.091 264.784 238.988 263.813C241.886 262.841 245.26 261.648 245.26 261.648C247.361 262.918 249.833 263.429 252.265 263.097C256.284 261.974 260.229 260.603 264.077 258.989C267.79 259.38 271.543 259.132 275.172 258.257C279.757 256.825 289.165 248.133 289.165 248.133L294.721 248.61L296.426 235.827L290.597 234.378Z" fill="white"/>
<path d="M236.058 265.33C237.18 265.267 238.285 265.026 239.33 264.614C241.648 263.847 244.29 262.91 245.245 262.586C247.448 263.829 250.003 264.303 252.505 263.933C256.515 262.83 260.449 261.469 264.282 259.859C268.044 260.251 271.844 259.986 275.514 259.075C279.826 257.712 287.905 250.553 289.541 249.019L294.654 249.463C294.871 249.474 295.084 249.406 295.254 249.271C295.423 249.136 295.538 248.943 295.575 248.73L297.279 235.947C297.306 235.738 297.255 235.527 297.135 235.354C297.016 235.181 296.836 235.058 296.632 235.009L290.837 233.561C290.736 233.535 290.631 233.535 290.53 233.561C282.008 234.651 268.066 236.356 266.89 236.22C265.714 236.083 263.481 237.481 257.499 241.418C255.3 242.884 253.017 244.418 250.869 245.73C247.013 248.098 243.512 251.002 240.472 254.354C239.876 254.985 239.279 255.598 238.649 256.229C237.501 257.33 236.264 258.333 234.95 259.229C233.126 260.558 231.916 261.427 231.916 262.637C231.919 262.924 231.993 263.206 232.133 263.456C232.273 263.706 232.474 263.917 232.717 264.069C233.65 264.866 234.832 265.312 236.058 265.33ZM245.33 260.797H245.04C245.04 260.797 241.631 261.99 238.802 262.961C235.973 263.933 235.393 263.813 233.791 262.603C233.672 262.603 233.655 262.467 233.655 262.467C234.362 261.736 235.151 261.09 236.007 260.541C237.394 259.595 238.7 258.535 239.91 257.371L241.751 255.462C244.681 252.212 248.069 249.404 251.806 247.128C253.988 245.781 256.289 244.247 258.505 242.764C261.777 240.583 265.833 237.873 266.72 237.839C268.151 238.077 286.525 235.725 290.581 235.197L295.49 236.424L294.007 247.639L289.269 247.23C289.027 247.217 288.789 247.296 288.604 247.451C288.519 247.537 279.298 255.973 274.969 257.405C271.456 258.248 267.823 258.478 264.231 258.087C264.092 258.045 263.944 258.045 263.805 258.087C260.009 259.683 256.115 261.038 252.147 262.143C249.934 262.423 247.69 261.955 245.773 260.814C245.615 260.751 245.44 260.745 245.279 260.797H245.33Z" fill="#072B2C"/>
<path d="M245.275 262.5C245.418 262.503 245.559 262.467 245.684 262.398C245.783 262.345 245.87 262.272 245.94 262.185C246.011 262.098 246.064 261.997 246.095 261.89C246.127 261.782 246.137 261.669 246.125 261.557C246.113 261.446 246.079 261.338 246.025 261.239C245.898 261.048 245.819 260.829 245.792 260.601C245.765 260.373 245.793 260.142 245.871 259.927C246.536 258.12 250.695 256.518 254.035 255.291C256.043 254.644 257.971 253.769 259.779 252.683C260.949 251.773 262.167 250.925 263.427 250.144C263.59 250.082 263.731 249.973 263.831 249.83C263.932 249.687 263.987 249.517 263.989 249.343C263.989 249.117 263.899 248.9 263.739 248.74C263.58 248.58 263.363 248.49 263.137 248.49C262.847 248.49 262.608 248.49 258.774 251.303C257.081 252.294 255.287 253.1 253.422 253.706C249.382 255.223 245.207 256.808 244.269 259.33C244.108 259.776 244.049 260.253 244.096 260.725C244.143 261.197 244.295 261.652 244.542 262.057C244.616 262.188 244.722 262.298 244.85 262.375C244.979 262.453 245.125 262.496 245.275 262.5Z" fill="#072B2C"/>
<path d="M224.978 251.405C224.978 251.405 224.569 255.291 225.182 256.314C225.796 257.336 228.029 257.336 229.256 254.882C230.09 252.794 230.573 250.583 230.688 248.337L224.978 251.405Z" fill="white"/>
<path d="M226.494 257.813H226.596C227.34 257.737 228.051 257.461 228.651 257.014C229.251 256.567 229.719 255.965 230.005 255.273C230.897 253.105 231.41 250.799 231.521 248.456V246.956L224.09 250.944V251.387C223.988 252.359 223.698 255.648 224.414 256.824C224.647 257.154 224.961 257.417 225.325 257.59C225.689 257.764 226.091 257.84 226.494 257.813ZM229.698 249.836C229.534 251.444 229.132 253.018 228.505 254.506C227.772 255.938 226.8 256.092 226.545 256.109C226.426 256.122 226.305 256.108 226.192 256.066C226.08 256.025 225.979 255.958 225.897 255.87C225.641 254.579 225.601 253.254 225.778 251.95L229.698 249.836Z" fill="#072B2C"/>
<path d="M229.001 250.928C229.52 252.491 230.311 253.951 231.336 255.24C232.342 255.888 234.353 254.899 234.387 252.155C234.215 249.917 233.674 247.723 232.785 245.661L229.001 250.928Z" fill="white"/>
<path d="M232.018 256.28C232.459 256.28 232.893 256.169 233.279 255.956C233.918 255.558 234.438 254.995 234.783 254.326C235.128 253.657 235.285 252.907 235.239 252.156C235.058 249.803 234.482 247.499 233.535 245.338L232.938 243.958L228.013 250.775L228.166 251.201C228.507 252.121 229.7 255.189 230.842 255.939C231.19 256.169 231.6 256.288 232.018 256.28ZM232.546 247.452C233.11 248.961 233.443 250.547 233.535 252.156C233.583 252.599 233.51 253.047 233.324 253.452C233.138 253.857 232.845 254.204 232.478 254.456C232.372 254.508 232.255 254.535 232.137 254.535C232.019 254.535 231.903 254.508 231.796 254.456C231.001 253.428 230.379 252.277 229.956 251.048L232.546 247.452Z" fill="#072B2C"/>
<path d="M225.181 247.519C225.181 247.519 221.09 251.201 221.499 254.882C221.909 258.564 224.772 257.746 225.573 255.291C226.374 252.837 227.277 249.974 227.277 249.974L225.181 247.519Z" fill="white"/>
<path d="M223.307 258.24C224.032 258.16 224.715 257.86 225.266 257.383C225.817 256.905 226.209 256.27 226.392 255.564C227.21 253.11 228.096 250.247 228.096 250.213L228.232 249.769L225.335 246.361L224.67 246.94C224.5 247.111 220.273 250.962 220.716 255.019C221.023 257.763 222.506 258.206 223.136 258.274L223.307 258.24ZM226.272 250.178C226.017 251.065 225.386 253.178 224.773 255.019C224.432 256.024 223.733 256.553 223.239 256.536C222.744 256.519 222.455 255.82 222.335 254.831C222.08 252.462 224.04 249.974 225.113 248.849L226.272 250.178Z" fill="#072B2C"/>
<path d="M295.812 219.925C295.812 219.925 272.377 215.613 265.901 216.227C259.424 216.84 241.238 224.544 239.091 225.771C236.943 226.998 224.28 235.997 223.973 238.417C223.915 241 224.126 243.582 224.604 246.121C224.604 246.121 218.434 247.366 220.581 250.127C222.729 252.888 227.399 252.291 230.143 251.371C232.887 250.45 241.869 244.553 244.017 243.667C246.164 242.781 253.885 244.587 259.748 242.73C265.611 240.872 274.849 232.248 274.849 232.248L294.006 237.804L295.812 219.925Z" fill="white"/>
<path d="M225.626 253.007C227.257 252.987 228.874 252.706 230.416 252.172C233.465 250.795 236.405 249.189 239.21 247.366C241.426 246.053 243.522 244.809 244.323 244.451C245.831 244.18 247.371 244.14 248.891 244.332C252.602 244.707 256.349 244.442 259.97 243.548C265.338 241.843 273.247 234.838 275.036 233.202L294.671 238.912L296.75 219.158L295.966 219.022C295.012 218.834 272.343 214.693 265.833 215.306C259.322 215.92 240.898 223.692 238.665 224.97C237.762 225.481 223.53 235.026 223.138 238.247C223.033 240.644 223.199 243.046 223.632 245.406C222.32 245.764 220.002 246.599 219.422 248.167C219.278 248.577 219.248 249.019 219.335 249.445C219.422 249.871 219.623 250.266 219.917 250.587C220.616 251.405 221.496 252.049 222.487 252.469C223.478 252.889 224.552 253.073 225.626 253.007ZM246.283 242.525C245.41 242.476 244.536 242.597 243.71 242.883C242.772 243.275 240.727 244.502 238.375 245.9C235.647 247.649 232.8 249.204 229.853 250.553C226.973 251.524 223.036 251.848 221.246 249.615C220.871 249.138 220.956 248.917 220.99 248.831C221.297 248.013 223.411 247.229 224.74 246.957L225.558 246.803L225.422 245.985C224.96 243.525 224.754 241.023 224.808 238.52C225.081 236.679 236.739 228.14 239.5 226.589C241.613 225.379 259.595 217.744 265.969 217.147C271.593 216.602 290.768 219.942 294.943 220.692L293.239 236.764L274.644 231.362L274.286 231.702C274.286 231.788 265.117 240.224 259.509 241.929C256.08 242.749 252.536 242.986 249.027 242.627C247.988 242.576 247.033 242.525 246.283 242.525Z" fill="#072B2C"/>
<path d="M242.532 227.51C239.976 228.144 237.689 229.577 236.004 231.601C232.595 235.265 224.602 246.122 224.602 246.122C233.414 244.724 241.305 236.288 241.305 236.288" fill="white"/>
<path d="M222.693 247.297L224.721 246.973C233.737 245.542 241.612 237.224 241.936 236.866L240.691 235.707C240.691 235.707 234.164 242.525 226.647 244.792C229.05 241.536 234.078 234.855 236.618 232.179C238.195 230.32 240.299 228.983 242.651 228.345L242.43 226.64C239.659 227.321 237.183 228.882 235.374 231.089C231.965 234.77 224.227 245.269 223.903 245.712L222.693 247.297Z" fill="#072B2C"/>
<path d="M430.235 159.795C430.235 159.795 439.166 177.06 434.24 220.232C429.315 263.404 412.084 288.68 402.181 288.987C392.279 289.294 318.326 268.023 310.912 263.694C303.498 259.365 288.755 255.07 287.8 254.763C286.846 254.456 284.392 245.508 286.556 233.492C287.388 228.187 288.526 222.934 289.965 217.761L318.939 223.01L363.015 230.407C362.866 229.552 362.996 228.671 363.386 227.895C363.776 227.118 364.404 226.488 365.179 226.095C368.058 224.787 371.054 223.754 374.127 223.01C374.127 223.01 382.138 168.47 398.789 154.256" fill="#43916F"/>
<path d="M401.96 289.839H402.199C412.425 289.515 430.031 264.58 435.093 220.335C439.985 177.401 431.361 160.119 430.986 159.42C430.941 159.312 430.874 159.214 430.789 159.133C430.705 159.052 430.604 158.989 430.494 158.948C430.384 158.908 430.267 158.89 430.15 158.897C430.033 158.904 429.919 158.934 429.814 158.987C429.71 159.04 429.617 159.114 429.542 159.204C429.468 159.295 429.412 159.399 429.38 159.512C429.348 159.624 429.339 159.743 429.354 159.859C429.369 159.975 429.408 160.087 429.469 160.187C429.571 160.358 438.229 177.81 433.389 220.13C428.276 264.921 410.601 287.862 402.148 288.135C392.552 288.373 318.633 267.239 311.355 262.961C308.27 261.171 301.845 258.189 288.721 254.149L288.21 253.996C287.409 252.803 285.449 244.52 287.409 233.629C289.011 224.63 290.119 220.3 290.562 218.732L318.786 223.846L362.879 231.243C363.018 231.267 363.161 231.256 363.294 231.211C363.428 231.167 363.549 231.09 363.646 230.987C363.741 230.886 363.809 230.763 363.845 230.629C363.881 230.495 363.882 230.355 363.85 230.22C363.735 229.544 363.838 228.85 364.144 228.237C364.451 227.623 364.945 227.124 365.555 226.811C368.371 225.545 371.298 224.541 374.298 223.812C374.46 223.77 374.606 223.681 374.719 223.557C374.831 223.433 374.904 223.278 374.929 223.113C375.014 222.567 383.093 168.692 399.301 154.938C399.386 154.865 399.456 154.776 399.507 154.676C399.558 154.577 399.588 154.468 399.597 154.356C399.606 154.245 399.592 154.132 399.558 154.026C399.523 153.92 399.468 153.821 399.395 153.736C399.322 153.651 399.233 153.581 399.134 153.53C399.034 153.48 398.925 153.449 398.814 153.44C398.702 153.432 398.59 153.445 398.483 153.48C398.377 153.514 398.278 153.57 398.193 153.642C382.223 167.277 374.332 216.21 373.326 222.363C370.391 223.078 367.536 224.089 364.805 225.38C364.068 225.775 363.441 226.349 362.983 227.048C362.524 227.748 362.248 228.551 362.18 229.385L319.144 222.158L290.17 216.926C289.97 216.894 289.766 216.933 289.592 217.035C289.417 217.138 289.284 217.298 289.215 217.488C287.769 222.7 286.63 227.993 285.807 233.339C283.727 244.929 285.807 254.968 287.613 255.496L288.312 255.717C301.283 259.706 307.572 262.62 310.571 264.376C318.173 268.926 390.95 289.839 401.96 289.839Z" fill="#072B2C"/>
<path d="M408.966 242.354C409.164 242.35 409.355 242.279 409.506 242.152C409.658 242.025 409.762 241.85 409.801 241.656C409.841 241.434 409.792 241.206 409.664 241.021C409.536 240.836 409.34 240.708 409.119 240.667C399.541 238.86 374.844 222.464 374.589 222.294C374.401 222.193 374.184 222.167 373.978 222.218C373.772 222.27 373.593 222.397 373.475 222.574C373.358 222.751 373.311 222.965 373.344 223.175C373.376 223.385 373.486 223.575 373.651 223.708C374.674 224.39 398.876 240.48 408.795 242.337L408.966 242.354Z" fill="#072B2C"/>
<path d="M412.357 261.155C412.513 261.158 412.666 261.116 412.799 261.034C412.932 260.953 413.039 260.835 413.107 260.695C413.209 260.496 413.229 260.264 413.162 260.05C413.095 259.837 412.947 259.658 412.749 259.553C410.382 258.321 408.104 256.926 405.932 255.377C405.84 255.312 405.736 255.266 405.627 255.241C405.517 255.216 405.403 255.213 405.293 255.232C405.182 255.251 405.076 255.292 404.981 255.352C404.886 255.412 404.803 255.49 404.738 255.582C404.674 255.673 404.627 255.777 404.603 255.887C404.578 255.996 404.575 256.11 404.594 256.22C404.613 256.331 404.653 256.437 404.713 256.532C404.773 256.627 404.851 256.71 404.943 256.775C407.162 258.361 409.485 259.796 411.897 261.07C412.038 261.144 412.199 261.174 412.357 261.155Z" fill="#072B2C"/>
<path d="M401.687 254.116C401.817 254.114 401.945 254.084 402.063 254.028C402.181 253.972 402.285 253.892 402.369 253.792C402.507 253.61 402.568 253.382 402.54 253.155C402.511 252.929 402.394 252.723 402.215 252.582C393.499 245.546 385.35 237.835 377.843 229.521C377.768 229.437 377.677 229.369 377.575 229.32C377.474 229.271 377.364 229.243 377.252 229.237C377.139 229.23 377.027 229.246 376.92 229.283C376.814 229.321 376.716 229.378 376.632 229.453C376.548 229.528 376.48 229.619 376.431 229.72C376.382 229.822 376.354 229.932 376.348 230.044C376.341 230.157 376.357 230.269 376.394 230.375C376.432 230.482 376.489 230.579 376.564 230.663C384.146 239.051 392.375 246.83 401.175 253.928C401.321 254.045 401.5 254.111 401.687 254.116Z" fill="#072B2C"/>
<path d="M377.825 258.07C377.956 258.072 378.086 258.044 378.204 257.987C378.322 257.931 378.426 257.849 378.507 257.746C378.638 257.564 378.694 257.337 378.662 257.115C378.63 256.893 378.514 256.691 378.337 256.553C377.12 255.609 376.017 254.528 375.047 253.331C374.976 253.244 374.887 253.172 374.788 253.119C374.688 253.065 374.579 253.032 374.467 253.021C374.354 253.01 374.241 253.021 374.133 253.054C374.025 253.087 373.924 253.141 373.837 253.212C373.75 253.284 373.677 253.372 373.624 253.472C373.571 253.571 373.538 253.68 373.527 253.793C373.516 253.905 373.527 254.018 373.56 254.126C373.592 254.234 373.646 254.335 373.718 254.422C374.779 255.689 375.98 256.833 377.297 257.831C377.44 257.97 377.627 258.054 377.825 258.07Z" fill="#072B2C"/>
<path d="M371.844 251.184C372.006 251.179 372.165 251.132 372.304 251.048C372.493 250.925 372.627 250.734 372.678 250.515C372.729 250.295 372.693 250.065 372.577 249.872C369.51 244.596 367.214 238.908 365.759 232.981C365.707 232.755 365.568 232.559 365.371 232.436C365.175 232.313 364.937 232.273 364.711 232.325C364.485 232.377 364.289 232.517 364.166 232.713C364.043 232.91 364.003 233.147 364.055 233.373C365.57 239.485 367.957 245.346 371.145 250.775C371.219 250.896 371.321 250.997 371.443 251.068C371.565 251.139 371.703 251.179 371.844 251.184Z" fill="#072B2C"/>
<path d="M308.764 253.451C308.878 253.447 308.989 253.42 309.092 253.372C309.195 253.324 309.287 253.256 309.363 253.171C309.44 253.087 309.498 252.989 309.536 252.882C309.573 252.775 309.589 252.661 309.582 252.548C309.48 250.843 309.446 249.037 309.446 247.435C309.448 247.323 309.428 247.213 309.387 247.11C309.346 247.006 309.285 246.912 309.208 246.833C309.13 246.754 309.037 246.691 308.935 246.647C308.832 246.604 308.722 246.582 308.611 246.582C308.497 246.572 308.383 246.587 308.275 246.625C308.167 246.663 308.069 246.724 307.987 246.803C307.905 246.882 307.84 246.978 307.798 247.084C307.756 247.19 307.736 247.303 307.742 247.417C307.742 249.122 307.742 250.826 307.878 252.718C307.904 252.931 308.01 253.125 308.175 253.261C308.34 253.398 308.551 253.466 308.764 253.451Z" fill="#072B2C"/>
<path d="M308.987 241.947C309.197 241.947 309.4 241.869 309.554 241.727C309.709 241.585 309.805 241.389 309.822 241.18C311.168 228.482 316.043 224.324 316.077 224.289C316.253 224.147 316.366 223.94 316.39 223.715C316.414 223.49 316.347 223.264 316.205 223.088C316.062 222.912 315.856 222.799 315.63 222.775C315.405 222.751 315.18 222.818 315.003 222.96C314.782 223.13 309.549 227.511 308.186 241.009C308.162 241.233 308.227 241.457 308.368 241.633C308.508 241.808 308.712 241.921 308.936 241.947H308.987Z" fill="#072B2C"/>
<path d="M458.836 331.017H486.6C486.6 331.017 504.598 259.263 497.355 203.922C497.011 201.351 495.745 198.993 493.791 197.287C491.837 195.581 489.33 194.644 486.736 194.65C485.329 194.648 483.935 194.924 482.635 195.464C481.335 196.004 480.155 196.796 479.163 197.794C478.171 198.792 477.386 199.978 476.855 201.281C476.324 202.584 476.056 203.98 476.067 205.388C476.203 225.107 474.397 270.665 458.836 331.017Z" fill="#072B2C"/>
<path d="M458.836 331.869H486.6C486.789 331.867 486.972 331.802 487.12 331.685C487.268 331.568 487.373 331.405 487.418 331.221C487.606 330.506 505.382 258.666 498.19 203.802C497.905 201.665 497.026 199.65 495.654 197.986C494.282 196.322 492.471 195.076 490.427 194.389C488.382 193.703 486.187 193.602 484.088 194.1C481.99 194.598 480.073 195.674 478.555 197.206C477.47 198.273 476.609 199.547 476.024 200.952C475.438 202.357 475.14 203.865 475.147 205.387C475.266 226.777 473.204 271.517 457.915 330.812C457.881 330.938 457.877 331.07 457.903 331.197C457.93 331.325 457.987 331.444 458.069 331.545C458.157 331.662 458.274 331.753 458.409 331.81C458.544 331.866 458.691 331.887 458.836 331.869ZM485.952 330.165H459.944C475.027 271.21 476.987 226.726 476.987 205.387C476.976 204.092 477.222 202.807 477.71 201.607C478.199 200.407 478.92 199.316 479.833 198.396C480.746 197.477 481.833 196.748 483.029 196.251C484.226 195.754 485.509 195.5 486.804 195.502C489.187 195.504 491.488 196.368 493.283 197.935C495.078 199.501 496.246 201.664 496.571 204.024C503.32 255.803 487.708 322.87 485.952 330.165Z" fill="#072B2C"/>
<path d="M4.85321 332.653H528.742C528.889 332.653 529.031 332.6 529.135 332.506C529.239 332.412 529.298 332.285 529.298 332.153C529.298 332.02 529.239 331.893 529.135 331.799C529.031 331.705 528.889 331.653 528.742 331.653H4.85321C4.70673 331.655 4.56708 331.709 4.4635 331.802C4.35992 331.895 4.30048 332.021 4.29761 332.153C4.29761 332.285 4.35614 332.412 4.46033 332.506C4.56451 332.6 4.70587 332.653 4.85321 332.653Z" fill="#072B2C"/>
</svg>
